<?xml version="1.0" encoding="utf-8" ?>
<svg xmlns="http://www.w3.org/2000/svg" xmlns:xlink="http://www.w3.org/1999/xlink" width="128" height="32">
	<defs>
		<clipPath id="clip_0">
			<rect x="-1140" y="-30" width="1366" height="184" clip-rule="evenodd"/>
		</clipPath>
	</defs>
	<g clip-path="url(#clip_0)">
		<path fill="rgb(20,110,55)" stroke="none" transform="translate(0 0.384331)" d="M22.0848 13.6099C21.2383 14.3351 20.5867 14.4578 20.3016 14.1631C20.1142 13.97 20.077 13.597 20.2186 13.1147C20.6675 11.5838 21.0166 10.0387 21.3065 8.4684C21.3087 8.46755 21.3113 8.46649 21.3137 8.46521C23.0191 7.68312 24.7322 6.96511 26.6259 6.77097C25.7309 9.27573 24.1097 11.8745 22.0848 13.6099M21.2379 18.7434C20.1407 18.532 19.6158 18.1032 19.6494 17.7131C19.6716 17.4574 19.9271 17.2109 20.3759 17.0377C21.7557 16.5044 23.1178 15.9172 24.4004 15.2141C24.4026 15.2154 24.405 15.2166 24.407 15.2176C26.1067 15.9738 27.7392 16.9332 29.0522 18.1485C26.6647 18.9597 23.709 19.2202 21.2379 18.7434M16.6611 22.0135C16.1815 20.8914 16.2173 20.1302 16.5423 19.867C16.7557 19.6947 17.0952 19.7273 17.4911 19.9771C18.6992 20.74 19.9443 21.4525 21.2495 22.0183C21.2499 22.0209 21.2503 22.0241 21.2509 22.0267C21.7203 24.1245 21.9935 26.3262 21.8729 28.4854C19.7003 26.9633 17.7287 24.5126 16.6611 22.0135M11.5085 20.0009C12.0923 18.7477 12.7156 18.2768 13.145 18.4082C13.4266 18.494 13.6332 18.8376 13.7091 19.3897C13.9493 21.1331 14.2973 22.8448 14.7208 24.5561C14.719 24.5586 14.7168 24.5614 14.7151 24.5638C13.2508 26.6597 11.6796 28.6777 9.70845 30.3195C9.47567 26.9323 10.085 23.0565 11.5085 20.0009M9.92989 14.2158C11.2833 13.9506 12.0223 14.1689 12.1883 14.584C12.2973 14.8566 12.1622 15.2208 11.7789 15.6096C10.5124 16.8932 9.35136 18.2431 8.23652 19.6476L8.22613 19.6476C5.49904 19.8352 2.66143 19.7308 0 19.1136C2.71183 16.8817 6.38795 14.9098 9.92989 14.2158M13.3345 9.51394C14.3393 10.4157 14.6146 11.136 14.39 11.5285C14.2432 11.7856 13.8762 11.9076 13.3387 11.8441C11.5373 11.6314 9.74074 11.5485 7.92289 11.5353C7.92114 11.5329 7.91894 11.5296 7.91675 11.5272C6.20026 9.48119 4.64788 7.17586 3.64989 4.6868C7.05171 5.49407 10.7326 7.1796 13.3345 9.51394M18.8757 9.60648C18.8688 10.8891 18.5337 11.5351 18.1181 11.5832C17.8457 11.615 17.5321 11.3912 17.2473 10.9271C16.3146 9.40653 15.2931 7.95703 14.209 6.53401C14.2097 6.53114 14.2106 6.52805 14.2115 6.52496C14.6322 4.27987 15.3058 1.99064 16.4574 0C17.899 2.88179 18.8935 6.40027 18.8757 9.60648"/>
	</g>
	<defs>
		<clipPath id="clip_1">
			<rect y="0.061344147" width="29.357965" height="31.233421" clip-rule="evenodd"/>
		</clipPath>
	</defs>
	<g clip-path="url(#clip_1)">
		<path fill="rgb(100,200,50)" stroke="none" transform="translate(0 0.0613441)" d="M22.1111 2.16598C22.0086 3.87684 21.8846 5.59122 21.6513 7.26527C21.5881 7.71926 21.5164 8.24819 21.4445 8.6656C21.4465 8.66472 21.4491 8.66339 21.4516 8.66251C23.1995 7.84995 24.9547 7.10461 26.8954 6.90295C25.6764 4.99706 24.0421 3.36091 22.1111 2.16598M28.6523 12.08C27.6277 12.9953 26.5741 13.8823 25.4608 14.6574C25.1494 14.8745 24.7961 15.1361 24.5015 15.3301C24.5035 15.3312 24.5058 15.3325 24.5078 15.3338C26.0582 16.1933 27.5476 17.2844 28.7457 18.6663C29.0299 16.3824 29.0073 14.352 28.6523 12.08M27.1695 23.9068C25.7734 23.5557 24.3823 23.1568 23.0468 22.6336C22.6664 22.4844 22.2234 22.3264 21.8719 22.1777C21.8724 22.1803 21.873 22.1836 21.8735 22.1863C22.3908 24.3326 22.6922 26.5852 22.5592 28.7943C24.4407 27.5322 26.0177 25.8482 27.1695 23.9068M17.122 30.6068C16.4722 29.0851 15.8477 27.5527 15.3519 26.0079C15.2141 25.5787 15.0515 25.0799 14.9385 24.676C14.9369 24.6782 14.9345 24.6809 14.933 24.6832C13.4434 26.6464 11.8455 28.5364 9.84086 30.0745C12.2614 30.7328 14.6125 31.0417 17.122 30.6068M4.23102 26.8911C5.24145 25.0627 6.30536 23.2518 7.47003 21.5449C7.77917 21.0918 8.12693 20.5711 8.4192 20.1697C8.41565 20.17 8.4121 20.17 8.409 20.17C5.67154 20.3712 2.82356 20.2592 0.152241 19.5974C0.835551 22.3333 2.23657 24.8805 4.23102 26.8911M0 12.3079C2.14713 12.047 4.30536 11.809 6.44273 11.7369C6.99488 11.7182 7.62138 11.6906 8.11561 11.6895C8.11361 11.6871 8.11139 11.6838 8.1094 11.6814C6.37305 9.63 4.80314 7.31882 3.7936 4.82339C1.8786 6.92477 0.570794 9.53326 0 12.3079M16.5734 0.138807C15.4243 2.04116 14.7525 4.22845 14.3324 6.37398C14.3318 6.37672 14.3309 6.37967 14.33 6.38263C14.0417 6.02641 13.6589 5.59659 13.3278 5.20557C12.0723 3.72017 10.6853 2.3301 9.28139 0.965762C11.5856 0.0867132 14.1163 -0.201171 16.5734 0.138807"/>
	</g>
	<defs>
		<clipPath id="clip_2">
			<rect x="-1140" y="-30" width="1366" height="184" clip-rule="evenodd"/>
		</clipPath>
	</defs>
	<g clip-path="url(#clip_2)">
		<path fill="rgb(100,200,50)" stroke="none" transform="translate(35.4463 4.84848)" d="M5.49187 11.6421C2.56675 10.4516 1.48964 8.62785 1.88946 5.54284C2.53042 0.883088 5.22933 0 9.98663 0L16.9759 0L16.3923 4.10509L8.56163 4.10509C7.50234 4.17939 6.99332 4.47814 6.77714 5.86011C6.58948 7.09973 6.85068 7.31169 8.26544 7.8407L11.9167 9.23249C15.427 10.5953 15.9102 12.5995 15.5525 15.3918C14.9724 19.8164 13.0533 21.1651 7.3372 21.1651L0 21.1651L0.583686 17.06L7.14576 17.06C9.84623 17.06 10.4553 16.6412 10.6938 15.0741C10.8518 13.8588 10.581 13.6299 9.35458 13.181L5.49187 11.6421ZM24.719 0L24.1449 4.10509L19.3969 4.10509L19.971 0L24.719 0ZM91.6963 4.10509L92.2699 0L87.5222 0L86.9481 4.10509L91.6963 4.10509ZM81.3398 21.1685L84.2633 0.0294511L79.5963 0.0294511L78.7511 6.14213C77.3684 5.9324 75.8134 5.80723 74.4558 5.80723C71.0207 5.80723 68.7201 7.07497 67.864 13.3873C67.4302 16.7546 67.7512 19.0129 68.846 20.2916C69.555 21.1196 70.5619 21.5225 71.9236 21.5225C73.8634 21.5225 75.7777 20.6091 77.6203 18.8057L77.6203 21.1685L81.3398 21.1685ZM27.5784 7.5743C28.8164 6.36881 30.621 5.80723 33.2581 5.80723C36.778 5.80723 38.7478 6.47323 38.7478 6.47323L38.2907 9.82307C38.2907 9.82307 34.7747 9.76105 33.8329 9.76105C31.5094 9.76105 30.4725 10.313 30.0662 13.7338C29.8394 15.579 29.9186 16.531 30.3395 17.0199C30.6789 17.4148 31.2872 17.5683 32.5096 17.5683C34.2763 17.5683 35.7763 17.4801 36.9676 17.3059L37.2762 17.2526L36.7932 20.7843L36.6726 20.8246C34.9599 21.4014 33.0572 21.5225 31.7626 21.5225C29.1272 21.5225 27.3322 20.9154 26.2746 19.6662C25.1772 18.3704 24.8372 16.3447 25.2355 13.4737C25.6332 10.5848 26.3558 8.76529 27.5784 7.5743ZM65.4575 7.46743C66.1638 8.30455 66.4009 9.47836 66.182 11.056C65.73 14.2378 63.5584 15.0283 60.2013 15.2727L56.2105 15.5814C56.3182 17.3054 57.1925 17.6281 58.8391 17.6281C60.2582 17.6281 63.6797 17.4565 64.2386 17.3101L64.4637 17.251L64.4898 17.4882C64.6279 18.7365 65.0322 20.1167 65.0361 20.1305L65.089 20.3099L64.9208 20.3829C63.1052 21.1658 60.2426 21.5225 58.3511 21.5225C55.6699 21.5225 53.8259 20.8978 52.7138 19.6125C51.5803 18.3023 51.1912 16.2575 51.523 13.3606C52.1897 7.71285 54.3107 5.80723 59.9293 5.80723C62.7062 5.80723 64.5145 6.35029 65.4575 7.46743ZM17.0112 21.1685L21.7591 21.1685L23.8493 6.21999L19.1014 6.21999L17.0112 21.1685ZM52.0537 6.21999L51.1329 6.21999C49.3851 6.21999 47.674 7.08702 45.4687 9.1042L45.4687 6.21999L41.6934 6.21999L39.6035 21.1685L44.3827 21.1685L45.5405 12.5707C46.1424 11.803 47.8162 10.8985 49.0611 10.8985L50.0811 10.8985L50.117 10.7349C50.121 10.7158 50.5521 8.79429 51.8708 6.53325L52.0537 6.21999ZM84.5621 21.1685L89.3101 21.1685L91.4005 6.21999L86.6524 6.21999L84.5621 21.1685ZM76.1473 9.28894C73.6904 9.28894 73.1665 9.62607 72.681 13.4984C72.4322 15.4831 72.3595 16.7204 72.7241 17.1706C72.875 17.357 73.1305 17.4348 73.5196 17.4165C74.8617 17.3877 75.9281 16.6232 77.3041 15.3096L78.0824 9.28894L76.1473 9.28894ZM61.9231 10.5888C61.7621 11.9094 61.1193 12.1816 59.7359 12.2932L56.6372 12.5908C57.0731 10.1709 57.6224 9.40741 59.8464 9.40741C60.0036 9.40473 60.1517 9.40317 60.2907 9.40317C61.0435 9.40317 61.5535 9.45047 61.7695 9.6872C61.9158 9.84806 61.9628 10.1281 61.9231 10.5888Z" fill-rule="evenodd"/>
	</g>
</svg>
